<?xml version="1.0" encoding="utf-8"?>
<!-- Generator: Adobe Illustrator 24.0.1, SVG Export Plug-In . SVG Version: 6.00 Build 0)  -->
<svg version="1.1" id="Layer_1" xmlns="http://www.w3.org/2000/svg" xmlns:xlink="http://www.w3.org/1999/xlink" x="0px" y="0px"
	 viewBox="0 0 498 498" style="enable-background:new 0 0 498 498;" xml:space="preserve">
<style type="text/css">
	.st0{fill:#25C2A0;}
	.st1{fill:#B6EBDF;}
	.st2{fill:#281D1C;}
</style>
<g>
	<g>
		<path class="st0" d="M498,0.6c0,165.79,0,331.58,0,497.37c-165.84,0-331.68,0-497.51,0c0.05-1.36,0.13-2.71,0.13-4.07
			c0.01-163.05,0-326.1,0.01-489.15c0-4.91-0.5-4.14,4.24-4.14C169.25,0.6,333.62,0.6,498,0.6z M65.33,272.57
			C65.33,272.57,65.33,272.57,65.33,272.57c-0.01,18.06,0,36.11-0.01,54.17c0,4.14-0.23,3.7,3.62,2.74
			c17.83-4.45,35.75-8.44,53.79-11.94c13.33-2.59,26.68-5.02,40.08-7.21c2.89-0.47,2.93-0.48,2.92-2.66
			c-0.02-22.85-0.05-45.7-0.1-68.55c0-1.98-0.04-2.01-2.1-2.43c-3.84-0.78-7.68-1.52-11.51-2.3c-28.17-5.75-56.19-12.17-84.09-19.1
			c-2.58-0.64-2.58-0.63-2.61,1.91c0,0.4,0,0.8,0,1.2C65.33,236.46,65.33,254.52,65.33,272.57z M215.07,68.97
			c-0.21,0.57-0.07,1.12,0.04,1.67c0.66,3.45,1.3,6.91,1.99,10.35c4.57,22.78,9.14,45.56,13.73,68.34
			c1.1,5.48,2.28,10.94,3.43,16.41c0.46,2.2,0.48,2.2,2.81,2.22c0.32,0,0.64,0,0.96,0c22.06,0,44.12,0.01,66.18-0.01
			c3.61,0,3.07,0.51,3.82-3.02c5.95-28.29,11.68-56.61,17.15-85c0.62-3.21,1.23-6.43,1.81-9.65c0.26-1.43,0.18-1.5-1.23-1.59
			c-0.32-0.02-0.64-0.01-0.96-0.01c-35.81,0-71.61,0-107.42,0.01C216.61,68.68,215.78,68.5,215.07,68.97z M434.96,357.2
			c-0.75-0.55-1.24-0.94-1.77-1.29c-27.29-17.85-54.58-35.69-81.87-53.53c-1.77-1.15-1.77-1.15-3.34,0.4
			c-0.17,0.17-0.34,0.34-0.51,0.51c-15.71,15.71-31.43,31.42-47.14,47.13c-0.4,0.4-0.76,0.83-1.19,1.18
			c-0.9,0.72-0.76,1.4-0.11,2.24c1.61,2.09,3.15,4.23,4.71,6.36c17.58,24.1,34,48.95,49.31,74.55c0.39,0.65,0.66,1.43,1.56,1.9
			C381.35,410.2,408.05,383.81,434.96,357.2z M178.34,272.2c-0.03,0-0.06,0-0.1,0c0,11.03,0,22.06,0,33.09
			c0,0.64,0.02,1.28,0.02,1.92c0,0.86,0.34,1.36,1.28,1.31c0.4-0.02,0.8,0.01,1.2,0.01c10.95,0,21.91,0,32.86,0
			c0.48,0,0.96-0.02,1.44-0.01c0.8,0.01,1.15-0.41,1.16-1.18c0-0.48,0.02-0.96,0.02-1.44c0-19.98,0-39.97,0-59.95
			c0-2.72-0.08-5.43-0.07-8.15c0.01-1.21-0.44-1.8-1.7-1.65c-0.39,0.05-0.8,0-1.2,0c-10.63,0-21.27,0-31.9,0
			c-0.56,0-1.12,0.03-1.68,0.01c-0.9-0.03-1.33,0.38-1.32,1.28c0.01,0.48-0.01,0.96-0.01,1.44
			C178.34,249.98,178.34,261.09,178.34,272.2z M271.31,179.84c-11.43,0-22.86-0.01-34.28,0c-2.31,0-2.34,0.03-2.34,2.19
			c-0.01,11.19-0.01,22.37,0,33.56c0,2.18,0.04,2.2,2.34,2.2c5.27,0.01,10.55,0,15.82,0c17.42,0,34.84,0,52.27,0
			c2.3,0,2.34-0.03,2.34-2.2c0.01-11.19,0.01-22.37,0-33.56c0-2.14-0.03-2.14-2.1-2.19c-0.56-0.01-1.12,0-1.68,0
			C292.89,179.84,282.1,179.84,271.31,179.84z M314.87,265.57c-0.56,0.53-1.15,1.06-1.71,1.62c-15.6,15.59-31.19,31.18-46.79,46.77
			c-0.68,0.68-1.37,1.35-2.03,2.04c-1.3,1.34-1.32,1.38-0.07,2.63c7.96,7.98,15.94,15.93,23.89,23.92c0.85,0.85,1.5,1.1,2.31,0.05
			c0.29-0.38,0.67-0.68,1.01-1.02c15.94-15.93,31.87-31.86,47.81-47.79c0.4-0.4,0.77-0.82,1.19-1.18c0.83-0.71,0.62-1.28-0.07-1.97
			c-8.09-8.06-16.17-16.15-24.25-24.23c-0.17-0.17-0.34-0.35-0.53-0.48C315.42,265.79,315.19,265.72,314.87,265.57z M263.85,292.26
			c0.33-0.29,0.76-0.65,1.15-1.04c8.03-8.02,16.06-16.04,24.08-24.08c1.44-1.44,1.43-1.47-0.06-2.97
			c-7.97-7.97-15.94-15.94-23.91-23.91c-0.23-0.23-0.47-0.43-0.68-0.68c-0.6-0.71-1.18-0.69-1.79,0c-0.26,0.3-0.57,0.56-0.85,0.85
			c-7.8,7.8-15.6,15.6-23.41,23.4c-0.34,0.34-0.66,0.7-1.01,1.02c-0.62,0.57-0.51,1.09,0.06,1.61c0.35,0.33,0.67,0.68,1.01,1.02
			c7.74,7.74,15.49,15.49,23.24,23.23c0.4,0.4,0.79,0.79,1.2,1.17C263.11,292.11,263.37,292.3,263.85,292.26z"/>
		<path class="st1" d="M498,0.6c-164.38,0-328.75,0-493.13,0.01c-4.74,0-4.24-0.76-4.24,4.14c-0.01,163.05-0.01,326.1-0.01,489.15
			c0,1.36-0.09,2.71-0.13,4.07c-0.15-0.1-0.5,0.24-0.48-0.24c0.02-0.64,0.01-1.28,0.01-1.92c0-165.19,0-330.38,0-495.7
			c1.16,0,2.32,0,3.48,0c164.12,0,328.24,0,492.36,0.03C496.54,0.15,497.47-0.4,498,0.6z"/>
		<path class="st2" d="M65.33,272.57c0-18.06,0-36.11,0-54.17c0-0.4,0-0.8,0-1.2c0.03-2.54,0.03-2.55,2.61-1.91
			c27.9,6.93,55.92,13.36,84.09,19.1c3.83,0.78,7.68,1.52,11.51,2.3c2.06,0.42,2.1,0.44,2.1,2.43c0.04,22.85,0.07,45.7,0.1,68.55
			c0,2.18-0.03,2.19-2.92,2.66c-13.4,2.19-26.76,4.62-40.08,7.21c-18.04,3.5-35.96,7.49-53.79,11.94c-3.85,0.96-3.62,1.4-3.62-2.74
			C65.33,308.69,65.33,290.63,65.33,272.57C65.33,272.57,65.33,272.57,65.33,272.57z"/>
		<path class="st2" d="M215.07,68.97c0.72-0.47,1.54-0.29,2.32-0.29c35.81-0.01,71.61-0.01,107.42-0.01c0.32,0,0.64-0.01,0.96,0.01
			c1.41,0.09,1.49,0.15,1.23,1.59c-0.58,3.22-1.2,6.44-1.81,9.65c-5.47,28.38-11.2,56.71-17.15,85c-0.74,3.54-0.21,3.02-3.82,3.02
			c-22.06,0.02-44.12,0.01-66.18,0.01c-0.32,0-0.64,0-0.96,0c-2.34-0.02-2.35-0.02-2.81-2.22c-1.15-5.47-2.33-10.93-3.43-16.41
			c-4.59-22.78-9.16-45.56-13.73-68.34c-0.69-3.45-1.33-6.9-1.99-10.35C215,70.09,214.86,69.54,215.07,68.97z"/>
		<path class="st2" d="M434.96,357.2c-26.92,26.61-53.61,53.01-80.36,79.45c-0.9-0.47-1.17-1.25-1.56-1.9
			c-15.31-25.6-31.74-50.45-49.31-74.55c-1.55-2.13-3.1-4.27-4.71-6.36c-0.65-0.84-0.78-1.51,0.11-2.24
			c0.43-0.35,0.8-0.78,1.19-1.18c15.71-15.71,31.43-31.42,47.14-47.13c0.17-0.17,0.34-0.34,0.51-0.51c1.57-1.54,1.57-1.55,3.34-0.4
			c27.29,17.84,54.58,35.68,81.87,53.53C433.72,356.25,434.21,356.65,434.96,357.2z"/>
		<path class="st2" d="M178.34,272.2c0-11.11,0-22.22,0-33.33c0-0.48,0.02-0.96,0.01-1.44c-0.01-0.9,0.42-1.31,1.32-1.28
			c0.56,0.02,1.12-0.01,1.68-0.01c10.63,0,21.27,0,31.9,0c0.4,0,0.8,0.04,1.2,0c1.26-0.15,1.7,0.44,1.7,1.65
			c-0.01,2.72,0.06,5.43,0.07,8.15c0.01,19.98,0,39.97,0,59.95c0,0.48-0.02,0.96-0.02,1.44c-0.01,0.77-0.36,1.19-1.16,1.18
			c-0.48,0-0.96,0.01-1.44,0.01c-10.95,0-21.91,0-32.86,0c-0.4,0-0.8-0.03-1.2-0.01c-0.94,0.06-1.28-0.45-1.28-1.31
			c0-0.64-0.02-1.28-0.02-1.92c0-11.03,0-22.06,0-33.09C178.28,272.2,178.31,272.2,178.34,272.2z"/>
		<path class="st2" d="M271.31,179.84c10.79,0,21.58,0,32.37,0c0.56,0,1.12-0.01,1.68,0c2.07,0.05,2.1,0.05,2.1,2.19
			c0.01,11.19,0.01,22.37,0,33.56c0,2.18-0.04,2.2-2.34,2.2c-17.42,0.01-34.84,0-52.27,0c-5.27,0-10.55,0.01-15.82,0
			c-2.3-0.01-2.34-0.03-2.34-2.2c-0.01-11.19-0.01-22.37,0-33.56c0-2.16,0.03-2.18,2.34-2.19
			C248.46,179.83,259.88,179.84,271.31,179.84z"/>
		<path class="st2" d="M314.87,265.57c0.32,0.15,0.55,0.23,0.74,0.36c0.2,0.13,0.36,0.31,0.53,0.48
			c8.08,8.08,16.16,16.16,24.25,24.23c0.69,0.69,0.9,1.27,0.07,1.97c-0.42,0.36-0.79,0.79-1.19,1.18
			c-15.94,15.93-31.87,31.86-47.81,47.79c-0.34,0.34-0.72,0.65-1.01,1.02c-0.81,1.05-1.47,0.8-2.31-0.05
			c-7.94-7.99-15.93-15.94-23.89-23.92c-1.25-1.25-1.22-1.29,0.07-2.63c0.67-0.69,1.35-1.36,2.03-2.04
			c15.6-15.59,31.19-31.18,46.79-46.77C313.72,266.63,314.31,266.1,314.87,265.57z"/>
		<path class="st2" d="M263.85,292.26c-0.49,0.04-0.74-0.15-0.97-0.37c-0.41-0.39-0.8-0.78-1.2-1.17
			c-7.75-7.74-15.49-15.49-23.24-23.23c-0.34-0.34-0.66-0.69-1.01-1.02c-0.56-0.53-0.67-1.05-0.06-1.61
			c0.35-0.32,0.67-0.68,1.01-1.02c7.8-7.8,15.6-15.6,23.41-23.4c0.28-0.28,0.59-0.55,0.85-0.85c0.61-0.69,1.19-0.7,1.79,0
			c0.21,0.24,0.45,0.45,0.68,0.68c7.97,7.97,15.95,15.94,23.91,23.91c1.49,1.5,1.5,1.53,0.06,2.97
			c-8.02,8.03-16.05,16.05-24.08,24.08C264.61,291.61,264.18,291.97,263.85,292.26z"/>
	</g>
</g>
</svg>
